# xmcd
#
# Track frame offsets:
#	150
#	17809
#	33358
#	45637
#	61786
#	74810
#	87703
#	103683
#	116224
#	133784
#	149293
#	161564
#	177682
#	190724
#	203624
#	219572
#
# Disc length: 3094 seconds
#
# Revision: 2
# Processed by: cddbd v1.5.2PL0 Copyright (c) Steve Scherf et al.
# Submitted via: audiograbber 1.83.01
#
DISCID=f50c1410
DTITLE=Various Artist - Karaoke Country Party Hits Volume 1
DYEAR=2004
DGENRE=Karaoke Country
TTITLE0=Garth Brooks - Friends In Low Places
TTITLE1=Brooks and Dunn - Boot Scootin' Boogie
TTITLE2=Johnny Paycheck - Take This Job And Shove It
TTITLE3=Billy Ray Cyrus - Achy Breaky Heart
TTITLE4=Merle Haggard - Okie From Muskogee
TTITLE5=Shelly West - Jose Cuervo
TTITLE6=Jeannie C. Riley - Harper Valley P.T.A.
TTITLE7=Roger Miller - King Of The Road
TTITLE8=Garth Brooks - Friends In Low Places
TTITLE9=Brooks and Dunn - Boot Scootin' Boogie
TTITLE10=Johnny Paycheck - Take This Job And Shove It
TTITLE11=Billy Ray Cyrus - Achy Breaky Heart
TTITLE12=Merle Haggard - Okie From Muskogee
TTITLE13=Shelly West - Jose Cuervo
TTITLE14=Jeannie C. Riley - Harper Valley P.T.A.
TTITLE15=Roger Miller - King Of The Road
EXTD=
EXTT0=
EXTT1=
EXTT2=
EXTT3=
EXTT4=
EXTT5=
EXTT6=
EXTT7=
EXTT8=
EXTT9=
EXTT10=
EXTT11=
EXTT12=
EXTT13=
EXTT14=
EXTT15=
PLAYORDER=
